<?xml version="1.0" encoding="UTF-8" standalone="no"?>
<!DOCTYPE svg PUBLIC "-//W3C//DTD SVG 1.1//EN" "http://www.w3.org/Graphics/SVG/1.1/DTD/svg11.dtd">
<svg width="100%" height="100%" viewBox="0 0 64 64" version="1.1" xmlns="http://www.w3.org/2000/svg" xmlns:xlink="http://www.w3.org/1999/xlink" xml:space="preserve" xmlns:serif="http://www.serif.com/" style="fill-rule:evenodd;clip-rule:evenodd;stroke-linejoin:round;stroke-miterlimit:2;">
    <path d="M21.797,56.786C24.842,45.812 33.099,37.951 42.549,34.439C44.18,42.343 42.996,50.813 39.071,57.867C37.063,58.415 34.962,58.735 32.796,58.798L32,58.798C28.388,58.798 24.942,58.083 21.797,56.786Z" style="fill:rgb(255,0,0);"/>
    <path d="M46.151,54.774C48.639,47.829 49.111,40.205 47.553,33.01C51.303,32.253 55.127,32.172 58.796,32.837C58.514,42.096 53.531,50.179 46.151,54.774Z" style="fill:rgb(255,0,0);"/>
    <path d="M58.435,27.523C54.372,26.952 50.194,27.138 46.113,28.01C45.309,25.755 44.295,23.582 43.086,21.52C46.439,19.583 49.501,17.146 52.134,14.304C55.353,17.964 57.591,22.508 58.435,27.523Z" style="fill:rgb(255,0,0);"/>
    <path d="M48.346,10.754C45.974,13.32 43.197,15.505 40.155,17.216C38.064,14.558 35.645,12.165 32.948,10.111L32.882,10.061L32.815,10.016C32.814,10.016 32.809,10.012 32.796,10.003C32.782,9.993 32.763,9.979 32.738,9.961C32.688,9.925 32.627,9.879 32.553,9.824C32.463,9.757 32.373,9.689 32.275,9.615C32.202,9.56 32.124,9.501 32.039,9.437C31.856,9.299 31.654,9.149 31.469,9.016C31.339,8.923 31.153,8.792 30.963,8.677C30.928,8.652 30.887,8.624 30.843,8.593C30.596,8.422 30.225,8.165 29.887,7.958C29.572,7.737 29.146,7.485 28.867,7.322C28.596,7.163 28.305,6.997 28.124,6.894C28.065,6.86 28.018,6.833 27.987,6.816C27.953,6.796 27.924,6.779 27.913,6.773L27.911,6.772C27.888,6.759 27.863,6.746 27.841,6.733L27.817,6.72C27.777,6.698 27.737,6.676 27.695,6.653C27.647,6.626 27.608,6.604 27.58,6.587L27.56,6.574L27.491,6.532C27.24,6.378 26.978,6.238 26.838,6.163C26.82,6.153 26.803,6.144 26.789,6.137L26.729,6.104L26.667,6.075C26.543,6.017 26.36,5.929 26.152,5.83C28.034,5.411 29.991,5.19 32,5.19C38.153,5.19 43.822,7.266 48.346,10.754Z" style="fill:rgb(255,0,0);"/>
    <path d="M19.013,8.541C19.024,8.544 19.034,8.547 19.044,8.55C19.485,8.689 19.906,8.821 20.311,8.967C20.46,9.024 20.606,9.079 20.749,9.133C21.407,9.383 21.993,9.605 22.483,9.832L22.623,9.902L22.656,9.918C22.966,10.061 23.411,10.274 23.812,10.465C24.026,10.567 24.227,10.663 24.388,10.739L24.394,10.742C24.529,10.815 24.642,10.876 24.748,10.939C24.834,10.995 24.911,11.04 24.952,11.064C25.028,11.108 25.105,11.152 25.169,11.187C25.223,11.217 25.277,11.247 25.317,11.269C25.324,11.273 25.331,11.277 25.337,11.28C25.357,11.291 25.371,11.299 25.38,11.304L25.39,11.309C25.448,11.343 25.519,11.383 25.599,11.429C25.776,11.53 25.999,11.657 26.244,11.801C26.416,11.902 26.578,11.998 26.71,12.08C26.81,12.142 26.863,12.178 26.883,12.19C26.884,12.191 26.885,12.192 26.886,12.192L27.003,12.281L27.13,12.356C27.323,12.471 27.513,12.602 27.751,12.767C27.859,12.842 27.977,12.923 28.11,13.013L28.2,13.074L28.277,13.118C28.276,13.118 28.326,13.15 28.445,13.235C28.579,13.331 28.741,13.452 28.919,13.586C28.985,13.635 29.057,13.69 29.13,13.745C29.239,13.827 29.349,13.91 29.442,13.98C29.566,14.072 29.717,14.185 29.854,14.279C31.846,15.803 33.666,17.542 35.287,19.459C33.563,20.091 31.785,20.576 29.975,20.903C26.03,21.614 22,21.634 18.091,20.916L18.077,20.914C14.977,20.362 11.966,19.367 9.155,17.962C11.572,14.038 14.973,10.782 19.013,8.541Z" style="fill:rgb(255,0,0);"/>
    <path d="M6.875,22.625C10.121,24.242 13.591,25.386 17.16,26.023C21.706,26.856 26.364,26.828 30.897,26.011C33.477,25.545 35.996,24.803 38.412,23.814C39.487,25.602 40.391,27.485 41.11,29.44C30.324,33.325 20.904,42.076 17.119,54.289C9.929,49.479 5.191,41.286 5.191,31.994C5.191,28.699 5.787,25.542 6.875,22.625Z" style="fill:rgb(255,0,0);"/>
    <path d="M0,31.994C0,14.333 14.323,0 32,0C49.679,0 64,14.346 64,32.006C64,49.667 49.677,64 32,64L29.404,64L29.404,63.885C12.952,62.562 0,48.782 0,31.994ZM32.796,58.798C47.236,58.377 58.809,46.536 58.809,32.006C58.809,17.209 46.808,5.19 32,5.19C17.191,5.19 5.191,17.198 5.191,31.994C5.191,46.789 17.202,58.798 32,58.798L32.796,58.798Z" style="fill:rgb(211,0,17);"/>
    <path d="M19.044,8.55C18.689,8.438 18.32,8.322 17.935,8.192L19.603,3.277C19.756,3.329 20.032,3.417 20.354,3.519C20.933,3.704 21.661,3.936 22.094,4.092L22.118,4.101L22.141,4.11C22.259,4.155 22.387,4.203 22.52,4.253C23.191,4.507 24.02,4.821 24.712,5.144L24.743,5.159L24.88,5.227C25.205,5.379 25.694,5.612 26.102,5.806C26.33,5.915 26.533,6.012 26.667,6.075L26.729,6.104L26.789,6.137C26.803,6.144 26.82,6.153 26.838,6.163C26.978,6.238 27.24,6.378 27.491,6.532L27.56,6.574L27.58,6.587C27.608,6.604 27.647,6.626 27.695,6.653C27.737,6.676 27.777,6.698 27.817,6.72C27.825,6.725 27.833,6.729 27.841,6.733C27.863,6.746 27.888,6.759 27.911,6.772L27.913,6.773C27.924,6.779 27.953,6.796 27.987,6.816C28.018,6.833 28.065,6.86 28.124,6.894C28.305,6.997 28.596,7.163 28.867,7.322C29.146,7.485 29.572,7.737 29.887,7.958C30.225,8.165 30.596,8.422 30.843,8.593C30.887,8.624 30.928,8.652 30.963,8.677C31.153,8.792 31.339,8.923 31.469,9.016C31.654,9.149 31.856,9.299 32.039,9.437C32.124,9.501 32.202,9.56 32.275,9.615C32.373,9.689 32.463,9.757 32.553,9.824C32.627,9.879 32.688,9.925 32.738,9.961C32.763,9.979 32.782,9.993 32.796,10.003C32.809,10.012 32.814,10.016 32.815,10.016L32.882,10.061L32.948,10.111C35.812,12.293 38.364,14.857 40.541,17.714L40.545,17.72C42.952,20.895 44.853,24.421 46.171,28.173C50.098,39.142 48.943,51.814 42.771,61.818L38.353,59.092C43.672,50.472 44.696,39.448 41.281,29.916L41.276,29.9C40.138,26.659 38.495,23.609 36.41,20.857C34.523,18.382 32.319,16.165 29.854,14.279C29.717,14.185 29.566,14.072 29.442,13.98C29.349,13.91 29.239,13.827 29.13,13.745C29.057,13.69 28.985,13.635 28.919,13.586C28.741,13.452 28.579,13.331 28.445,13.235C28.326,13.15 28.276,13.118 28.276,13.118C28.276,13.118 28.276,13.118 28.277,13.118L28.2,13.074L28.11,13.013C27.977,12.923 27.859,12.842 27.751,12.767C27.513,12.602 27.323,12.471 27.13,12.356L27.003,12.281L26.886,12.192C26.893,12.198 26.893,12.197 26.883,12.19C26.863,12.178 26.81,12.142 26.71,12.08C26.578,11.998 26.416,11.902 26.244,11.801C25.999,11.657 25.776,11.53 25.599,11.429C25.517,11.382 25.445,11.341 25.385,11.307L25.38,11.304C25.371,11.299 25.357,11.291 25.337,11.28C25.331,11.277 25.324,11.273 25.317,11.269C25.277,11.247 25.223,11.217 25.169,11.187C25.105,11.152 25.028,11.108 24.952,11.064C24.911,11.04 24.834,10.995 24.748,10.939C24.642,10.876 24.529,10.815 24.394,10.742C24.392,10.741 24.39,10.74 24.388,10.739C24.227,10.663 24.026,10.567 23.812,10.465C23.411,10.274 22.966,10.061 22.656,9.918L22.623,9.902L22.483,9.832C21.993,9.605 21.407,9.383 20.749,9.133C20.606,9.079 20.46,9.024 20.311,8.967C19.906,8.821 19.485,8.689 19.044,8.55ZM25.386,11.307C25.388,11.309 25.39,11.309 25.39,11.309L25.386,11.307ZM25.386,11.307C25.388,11.309 25.39,11.309 25.39,11.309L25.386,11.307Z" style="fill:rgb(211,0,17);"/>
    <path d="M29.975,20.903C37.81,19.489 45.039,15.094 49.984,8.84L54.056,12.058C48.342,19.286 40.001,24.367 30.897,26.011L30.897,26.011C26.364,26.828 21.706,26.856 17.16,26.023C12.626,25.214 8.251,23.587 4.295,21.211L6.968,16.761C10.377,18.809 14.156,20.216 18.077,20.914L18.091,20.916C22,21.634 26.029,21.615 29.975,20.903" style="fill:rgb(211,0,17);"/>
    <path d="M16.106,58.311C20.538,35.696 43.586,23.206 62.435,28.344L61.069,33.351C45.069,28.99 25.041,39.714 21.201,59.309L16.106,58.311Z" style="fill:rgb(211,0,17);"/>
</svg>
